<svg width="162" height="39" viewBox="0 0 162 39" fill="none" xmlns="http://www.w3.org/2000/svg">
<path d="M46.4561 12.2717H50.5295V28.7392H46.4561V12.2717ZM52.1538 22.5449C52.1538 18.466 54.6917 16.0212 58.4986 16.0212C62.3056 16.0212 64.8435 18.466 64.8435 22.5449C64.8435 26.6237 62.3944 29.0938 58.4986 29.0938C54.6029 29.0938 52.1538 26.7124 52.1538 22.5449ZM60.8082 22.5449C60.8082 20.3027 59.9326 18.9853 58.5367 18.9853C57.1408 18.9853 56.2779 20.2521 56.2779 22.5449C56.2779 24.8376 57.1408 26.0917 58.5367 26.0917C59.9326 26.0917 60.8335 24.8376 60.8335 22.5575L60.8082 22.5449ZM66.4678 29.5879H70.4016C70.5807 30.0106 70.8935 30.3633 71.2922 30.592C71.6908 30.8207 72.1536 30.913 72.6097 30.8546C74.1705 30.8546 74.9826 30.0186 74.9826 28.7772V26.497H74.9953C74.6592 27.207 74.1156 27.7988 73.4361 28.1945C72.7566 28.5902 71.973 28.7712 71.1884 28.7138C68.2063 28.7138 66.2267 26.4464 66.2267 22.5449C66.2267 18.6433 68.1175 16.2112 71.3026 16.2112C72.1073 16.1682 72.9055 16.3754 73.5873 16.8042C74.2691 17.233 74.8009 17.8622 75.1095 18.6053H74.9953V16.3125H79.0307V28.6505C79.0307 31.6273 76.3912 33.4894 72.5081 33.4894C68.9804 33.4767 66.7216 31.868 66.4932 29.6005L66.4678 29.5879ZM74.9953 22.5449C74.9953 20.5561 74.0817 19.302 72.635 19.302C71.1884 19.302 70.3001 20.5688 70.3001 22.5449C70.3001 24.5209 71.1757 25.6863 72.635 25.6863C74.0944 25.6863 74.9953 24.6096 74.9953 22.5449ZM80.6423 22.5449C80.6423 18.466 83.1802 16.0212 86.9871 16.0212C90.7941 16.0212 93.332 18.466 93.332 22.5449C93.332 26.6237 90.8702 29.0938 86.9871 29.0938C83.1041 29.0938 80.6676 26.7124 80.6676 22.5449H80.6423ZM89.2967 22.5449C89.2967 20.3027 88.4084 18.9853 87.0252 18.9853C85.642 18.9853 84.7664 20.2521 84.7664 22.5449C84.7664 24.8376 85.6293 26.0917 87.0252 26.0917C88.4211 26.0917 89.3221 24.8376 89.3221 22.5575L89.2967 22.5449ZM94.9817 13.3104C94.964 12.8962 95.0708 12.4862 95.2884 12.1331C95.5061 11.78 95.8246 11.5 96.2029 11.3291C96.5813 11.1581 97.0022 11.1041 97.4116 11.174C97.821 11.2439 98.2001 11.4344 98.5001 11.7211C98.8001 12.0078 99.0073 12.3775 99.095 12.7827C99.1828 13.1879 99.1471 13.6101 98.9925 13.9949C98.838 14.3797 98.5716 14.7095 98.2277 14.9419C97.8838 15.1744 97.4781 15.2988 97.0628 15.2992C96.7974 15.3059 96.5333 15.2599 96.2858 15.164C96.0383 15.068 95.8124 14.9239 95.6212 14.74C95.4299 14.5562 95.2771 14.3363 95.1717 14.093C95.0663 13.8498 95.0103 13.5881 95.0071 13.3231L94.9817 13.3104ZM94.9817 16.2999H99.1059V28.7898H95.0451L94.9817 16.2999ZM113.94 22.5449C113.94 26.6111 112.113 28.9672 109.004 28.9672C108.208 29.0162 107.416 28.8202 106.735 28.4056C106.054 27.9911 105.518 27.3779 105.197 26.6491H105.121V32.8054H101.047V16.3379H105.095V18.5673H105.172C105.481 17.8241 106.013 17.1942 106.694 16.7635C107.375 16.3328 108.173 16.1223 108.978 16.1605C112.176 16.1352 114.016 18.4787 114.016 22.5575L113.94 22.5449ZM109.791 22.5449C109.791 20.5688 108.864 19.2894 107.43 19.2894C105.996 19.2894 105.095 20.5561 105.083 22.5449C105.07 24.5336 105.996 25.7877 107.43 25.7877C108.864 25.7877 109.867 24.6096 109.867 22.5575L109.791 22.5449ZM120.894 16.0085C124.308 16.0085 126.427 17.6173 126.452 20.2014H122.734C122.734 19.302 121.986 18.7447 120.869 18.7447C119.752 18.7447 119.219 19.1754 119.219 19.8214C119.219 20.4674 119.689 20.6701 120.628 20.8601L123.242 21.3921C125.78 21.9242 126.795 22.9375 126.795 24.825C126.795 27.3584 124.447 29.0812 120.958 29.0812C117.468 29.0812 115.196 27.4091 115.032 24.863H118.978C119.092 25.7877 119.828 26.3324 121.021 26.3324C122.214 26.3324 122.772 25.9524 122.772 25.281C122.772 24.6096 122.392 24.4956 121.414 24.2929L119.054 23.7989C116.605 23.2796 115.323 22.0002 115.323 20.0874C115.4 17.6046 117.531 16.0212 120.97 16.0212L120.894 16.0085ZM140.436 28.7772H136.49V26.4337H136.414C136.193 27.2154 135.712 27.8985 135.05 28.3706C134.388 28.8427 133.584 29.0754 132.772 29.0305C132.158 29.0504 131.548 28.9407 130.98 28.7084C130.412 28.4762 129.9 28.1267 129.477 27.6829C129.054 27.2391 128.73 26.7111 128.526 26.1334C128.321 25.5557 128.242 24.9414 128.292 24.3309V16.3125H132.366V23.4569C132.366 24.9263 133.14 25.7243 134.409 25.7243C134.707 25.7221 135 25.6561 135.27 25.5309C135.54 25.4056 135.78 25.224 135.974 24.9982C136.167 24.7725 136.31 24.5079 136.393 24.2224C136.475 23.9368 136.495 23.6369 136.452 23.3429V16.3125H140.513L140.436 28.7772ZM142.403 16.2999H146.363V18.7067H146.451C146.67 17.9357 147.139 17.2588 147.784 16.7821C148.429 16.3053 149.215 16.0555 150.017 16.0719C150.823 16.0019 151.626 16.2345 152.269 16.7241C152.912 17.2137 153.349 17.9252 153.494 18.7193H153.672C153.925 17.9209 154.436 17.2286 155.125 16.7498C155.813 16.271 156.641 16.0327 157.479 16.0719C158.036 16.0507 158.591 16.1472 159.108 16.3551C159.625 16.5629 160.093 16.8774 160.479 17.278C160.866 17.6786 161.164 18.1562 161.353 18.6796C161.543 19.2031 161.619 19.7605 161.578 20.3154V28.7898H157.479V21.3541C157.479 20.0874 156.882 19.378 155.728 19.378C155.471 19.3738 155.217 19.425 154.983 19.5279C154.749 19.6309 154.539 19.7833 154.369 19.9746C154.199 20.1659 154.073 20.3916 153.998 20.6363C153.924 20.881 153.904 21.1388 153.938 21.3921V28.7898H150.055V21.3161C150.055 20.0494 149.433 19.378 148.317 19.378C148.058 19.376 147.802 19.4292 147.565 19.5341C147.329 19.6391 147.117 19.7933 146.946 19.9865C146.774 20.1796 146.645 20.4073 146.569 20.6541C146.492 20.9009 146.47 21.1612 146.502 21.4175V28.7898H142.429L142.403 16.2999Z" fill="#1E1B1B"/>
<path d="M38.3981 13.3487C38.3982 10.8275 37.6355 8.36504 36.2099 6.28387C34.7843 4.20271 32.7623 2.59986 30.4087 1.68528C28.0551 0.770693 25.4796 0.587014 23.0197 1.1583C20.5597 1.72958 18.33 3.0292 16.6225 4.88691H0.785645V38.2526H34.2231V22.6591C35.5355 21.4874 36.5857 20.0525 37.3051 18.4482C38.0245 16.844 38.3969 15.1063 38.3981 13.3487ZM31.9644 13.3487C31.9669 14.5568 31.6103 15.7385 30.9397 16.7442C30.2692 17.7499 29.3148 18.5345 28.1974 18.9986C27.08 19.4626 25.8498 19.5853 24.6624 19.3512C23.4751 19.117 22.3841 18.5365 21.5274 17.6831C20.6708 16.8298 20.087 15.7419 19.8499 14.5571C19.6129 13.3724 19.7333 12.1441 20.1958 11.0277C20.6584 9.91134 21.4423 8.95702 22.4485 8.28556C23.4546 7.6141 24.6376 7.25569 25.8479 7.25569C27.4679 7.25569 29.0217 7.89722 30.1684 9.03951C31.3151 10.1818 31.961 11.7315 31.9644 13.3487ZM27.7894 31.8302H7.21935V11.3092H13.4881C13.367 11.9824 13.3033 12.6647 13.2977 13.3487C13.3011 16.6703 14.6244 19.8548 16.9773 22.2036C19.3302 24.5523 22.5204 25.8733 25.8479 25.8766C26.4984 25.8732 27.1477 25.8181 27.7894 25.7119V31.8302Z" fill="#1E1B1B"/>
</svg>
