<svg width="172" height="35" viewBox="0 0 172 35" fill="none" xmlns="http://www.w3.org/2000/svg">
<path d="M26.2793 15.4792C25.801 15.9622 25.4347 16.5451 25.2065 17.1864C24.9783 17.8277 24.8938 18.5117 24.9591 19.1895L24.9364 19.1667C25.0035 19.9645 24.8963 20.7675 24.6223 21.5194C24.3482 22.2714 23.914 22.9543 23.3499 23.5205C22.7857 24.0867 22.1052 24.5225 21.3559 24.7975C20.6066 25.0725 19.8066 25.18 19.0116 25.1127L19.0343 25.1355C18.0833 25.0467 17.1282 25.2544 16.2991 25.7303C15.4701 26.2061 14.8075 26.9271 14.4016 27.7947C13.9958 28.6624 13.8665 29.6346 14.0314 30.5787C14.1962 31.5228 14.6472 32.3929 15.3229 33.0704C15.9985 33.7479 16.8659 34.1997 17.8068 34.3643C18.7477 34.5289 19.7163 34.3983 20.5805 33.9902C21.4447 33.5821 22.1625 32.9165 22.6359 32.084C23.1094 31.2515 23.3154 30.2928 23.2261 29.3385L23.2501 29.3613C23.183 28.5635 23.2901 27.7605 23.5642 27.0085C23.8382 26.2566 24.2724 25.5736 24.8366 25.0075C25.4007 24.4413 26.0812 24.0055 26.8305 23.7305C27.5798 23.4555 28.3798 23.3479 29.1748 23.4153L29.1509 23.3925C29.9277 23.4626 30.7096 23.3348 31.4241 23.0209C32.1386 22.707 32.7625 22.2171 33.2382 21.5968C33.7138 20.9764 34.0257 20.2456 34.145 19.472C34.2642 18.6985 34.187 17.9072 33.9204 17.1716C33.6538 16.436 33.2065 15.7798 32.62 15.2639C32.0334 14.748 31.3266 14.389 30.5649 14.2202C29.8033 14.0514 29.0116 14.0783 28.2631 14.2984C27.5146 14.5185 26.8336 14.9247 26.2831 15.4792H26.2793Z" fill="#1E1B1B"/>
<path d="M16.9678 22.1486L16.9439 22.1258C17.6196 22.1941 18.3019 22.1109 18.9417 21.8822C19.5814 21.6534 20.1624 21.2848 20.6428 20.8031C21.1232 20.3213 21.4909 19.7384 21.7193 19.0966C21.9478 18.4548 22.0312 17.77 21.9636 17.0918L21.9876 17.1146C21.9205 16.3168 22.0277 15.5138 22.3017 14.7619C22.5757 14.0099 23.01 13.327 23.5741 12.7608C24.1383 12.1946 24.8188 11.7588 25.568 11.4838C26.3173 11.2088 27.1174 11.1013 27.9124 11.1686L27.8884 11.1458C28.8395 11.2354 29.7949 11.0285 30.6245 10.5531C31.454 10.0777 32.1172 9.35715 32.5236 8.48961C32.9301 7.62206 33.06 6.64981 32.8956 5.70545C32.7312 4.7611 32.2806 3.89062 31.6052 3.21275C30.9297 2.53487 30.0623 2.08261 29.1214 1.91765C28.1804 1.75268 27.2116 1.88304 26.3471 2.29095C25.4827 2.69886 24.7647 3.36446 24.291 4.19696C23.8174 5.02946 23.6111 5.98834 23.7004 6.94279L23.6777 6.91872C23.7451 7.71663 23.638 8.51966 23.3641 9.27175C23.0901 10.0238 22.6559 10.7068 22.0917 11.2731C21.5275 11.8393 20.8469 12.2751 20.0975 12.55C19.3481 12.8249 18.548 12.9323 17.7529 12.8648L17.7757 12.8888C17.1 12.8205 16.4176 12.9037 15.7779 13.1325C15.1381 13.3613 14.5571 13.7298 14.0767 14.2116C13.5963 14.6933 13.2286 15.2762 13.0002 15.918C12.7717 16.5599 12.6883 17.2446 12.7559 17.9228L12.7332 17.9C12.8 18.6978 12.6927 19.5006 12.4186 20.2525C12.1445 21.0044 11.7103 21.6872 11.1462 22.2534C10.5821 22.8195 9.90168 23.2553 9.15248 23.5304C8.40329 23.8054 7.60332 23.9132 6.80837 23.846L6.83109 23.8688C5.88004 23.7792 4.92459 23.9862 4.09507 24.4615C3.26554 24.9369 2.60232 25.6575 2.19587 26.525C1.78941 27.3926 1.65952 28.3648 1.82389 29.3092C1.98827 30.2535 2.43892 31.124 3.11437 31.8019C3.78982 32.4798 4.65719 32.932 5.59817 33.097C6.53915 33.262 7.50793 33.1316 8.37237 32.7237C9.23682 32.3158 9.95484 31.6502 10.4285 30.8177C10.9022 29.9852 11.1084 29.0263 11.0191 28.0719L11.0431 28.0947C10.976 27.2968 11.0831 26.4939 11.3572 25.7419C11.6312 24.9899 12.0654 24.307 12.6296 23.7408C13.1937 23.1746 13.8742 22.7389 14.6235 22.4639C15.3728 22.1889 16.1728 22.0813 16.9678 22.1486Z" fill="#1E1B1B"/>
<path d="M8.50874 19.6063C8.98714 19.1234 9.35341 18.5405 9.58142 17.8991C9.80942 17.2578 9.89353 16.5738 9.82774 15.896L9.85172 15.9188C9.78456 15.1208 9.89181 14.3176 10.166 13.5654C10.4401 12.8132 10.8746 12.1302 11.439 11.564C12.0035 10.9977 12.6843 10.562 13.4339 10.2872C14.1835 10.0124 14.9838 9.90507 15.779 9.97281L15.7551 9.95001C16.7058 10.0394 17.6608 9.8323 18.49 9.35698C19.3191 8.88166 19.982 8.16124 20.3882 7.29396C20.7944 6.42669 20.9242 5.45479 20.7598 4.51079C20.5954 3.56679 20.1449 2.69664 19.4697 2.01902C18.7945 1.34139 17.9275 0.889272 16.9868 0.724314C16.0462 0.559355 15.0778 0.689589 14.2136 1.09725C13.3494 1.50492 12.6316 2.17016 12.158 3.00228C11.6843 3.8344 11.478 4.79287 11.5671 5.747L11.5443 5.7242C11.6114 6.52205 11.5043 7.32499 11.2302 8.07697C10.9562 8.82895 10.522 9.51186 9.95783 10.078C9.39368 10.6442 8.71321 11.08 7.96392 11.355C7.21462 11.63 6.41455 11.7376 5.61955 11.6702L5.64227 11.693C4.86547 11.6231 4.08366 11.7511 3.36928 12.0652C2.65489 12.3792 2.03105 12.8691 1.55557 13.4896C1.08008 14.11 0.768336 14.8408 0.649215 15.6144C0.530094 16.3879 0.607453 17.1791 0.874125 17.9146C1.1408 18.6501 1.58815 19.3062 2.17474 19.8221C2.76132 20.3379 3.46816 20.6968 4.22974 20.8655C4.99133 21.0342 5.78302 21.0072 6.53146 20.7871C7.2799 20.567 7.96086 20.1608 8.51126 19.6063H8.50874Z" fill="#1E1B1B"/>
<path d="M47.6079 6.97192H51.3566V25.28H47.6079V6.97192Z" fill="#1E1B1B"/>
<path d="M53.4797 19.0108C53.4744 17.6951 53.8584 16.4075 54.5829 15.3109C55.3074 14.2144 56.3399 13.3584 57.5496 12.8513C58.7593 12.3441 60.0917 12.2087 61.3782 12.4621C62.6646 12.7156 63.8472 13.3465 64.776 14.275C65.7049 15.2034 66.3383 16.3877 66.596 17.6777C66.8537 18.9677 66.7241 20.3055 66.2236 21.5215C65.7231 22.7376 64.8743 23.7772 63.7846 24.5087C62.6949 25.2402 61.4134 25.6307 60.1025 25.6307C59.2322 25.6407 58.3687 25.4764 57.5625 25.1476C56.7562 24.8188 56.0234 24.332 55.4067 23.7156C54.7901 23.0993 54.3021 22.3657 53.9712 21.5579C53.6403 20.7501 53.4732 19.8842 53.4797 19.0108ZM62.9765 19.0108C62.9609 18.4437 62.779 17.8938 62.4536 17.4298C62.1283 16.9659 61.6739 16.6085 61.1473 16.4023C60.6206 16.1961 60.0451 16.1503 59.4926 16.2706C58.9402 16.3909 58.4353 16.6719 58.0412 17.0786C57.647 17.4853 57.3811 17.9996 57.2765 18.5571C57.172 19.1147 57.2336 19.6908 57.4536 20.2134C57.6735 20.736 58.0421 21.182 58.5133 21.4955C58.9844 21.809 59.5372 21.9762 60.1025 21.9762C60.4896 21.9866 60.8747 21.9163 61.2334 21.7699C61.5922 21.6235 61.9168 21.404 62.1868 21.1254C62.4569 20.8468 62.6664 20.5151 62.8024 20.1511C62.9383 19.7872 62.9976 19.3989 62.9765 19.0108Z" fill="#1E1B1B"/>
<path d="M81.6658 12.7406V24.6479C81.6658 28.861 78.3917 30.642 75.0683 30.642C73.8981 30.7299 72.7265 30.4927 71.6818 29.9565C70.6372 29.4202 69.7598 28.6055 69.146 27.6019L72.3444 25.7461C72.6024 26.2693 73.0135 26.7009 73.5226 26.9832C74.0317 27.2655 74.6146 27.385 75.1932 27.3257C75.5631 27.3772 75.9397 27.3445 76.2952 27.2301C76.6507 27.1157 76.9761 26.9226 77.2472 26.665C77.5183 26.4074 77.7283 26.0919 77.8615 25.7419C77.9947 25.3918 78.0478 25.0162 78.0168 24.6428V23.4964C77.5778 24.0355 77.0191 24.4637 76.3854 24.7468C75.7517 25.03 75.0606 25.1601 74.3678 25.1267C72.7191 25.0745 71.1553 24.3806 70.0075 23.1917C68.8596 22.0028 68.2178 20.4124 68.2178 18.757C68.2178 17.1015 68.8596 15.5111 70.0075 14.3222C71.1553 13.1333 72.7191 12.4394 74.3678 12.3872C75.0606 12.3538 75.7517 12.4839 76.3854 12.7671C77.0191 13.0502 77.5778 13.4784 78.0168 14.0175V12.7381L81.6658 12.7406ZM78.0181 18.7589C78.0433 18.1525 77.8871 17.5525 77.5696 17.0361C77.2521 16.5196 76.7879 16.1103 76.2367 15.8608C75.6855 15.6113 75.0725 15.5331 74.4766 15.6362C73.8808 15.7394 73.3293 16.0191 72.8931 16.4394C72.457 16.8597 72.1562 17.4015 72.0294 17.9948C71.9027 18.5882 71.9557 19.206 72.1818 19.7688C72.4079 20.3317 72.7966 20.8137 73.298 21.153C73.7994 21.4922 74.3904 21.6731 74.9951 21.6723C75.3889 21.6999 75.7842 21.6444 76.1554 21.5094C76.5266 21.3743 76.8655 21.1628 77.1503 20.8883C77.4351 20.6139 77.6594 20.2826 77.8089 19.9158C77.9583 19.549 78.0296 19.1549 78.0181 18.7589Z" fill="#1E1B1B"/>
<path d="M83.7888 19.0108C83.7835 17.6951 84.1675 16.4075 84.892 15.3109C85.6165 14.2144 86.649 13.3584 87.8587 12.8513C89.0684 12.3441 90.4008 12.2087 91.6873 12.4621C92.9737 12.7156 94.1562 13.3465 95.0851 14.275C96.014 15.2034 96.6474 16.3877 96.9051 17.6777C97.1628 18.9677 97.0332 20.3055 96.5327 21.5215C96.0322 22.7376 95.1834 23.7772 94.0937 24.5087C93.004 25.2402 91.7225 25.6307 90.4115 25.6307C89.5413 25.6407 88.6778 25.4764 87.8716 25.1476C87.0653 24.8188 86.3324 24.332 85.7158 23.7156C85.0992 23.0993 84.6112 22.3657 84.2803 21.5579C83.9494 20.7501 83.7823 19.8842 83.7888 19.0108ZM93.2856 19.0108C93.2699 18.4437 93.0881 17.8938 92.7627 17.4298C92.4374 16.9659 91.983 16.6085 91.4563 16.4023C90.9297 16.1961 90.3542 16.1503 89.8017 16.2706C89.2493 16.3909 88.7444 16.6719 88.3503 17.0786C87.9561 17.4853 87.6901 17.9996 87.5856 18.5571C87.4811 19.1147 87.5427 19.6908 87.7627 20.2134C87.9826 20.736 88.3512 21.182 88.8223 21.4955C89.2935 21.809 89.8462 21.9762 90.4115 21.9762C90.7987 21.9866 91.1838 21.9163 91.5425 21.7699C91.9013 21.6235 92.2259 21.404 92.4959 21.1254C92.766 20.8468 92.9755 20.5151 93.1114 20.1511C93.2473 19.7872 93.3066 19.3989 93.2856 19.0108Z" fill="#1E1B1B"/>
<path d="M98.7827 9.37987C98.7827 8.93342 98.9146 8.49699 99.1618 8.12578C99.4089 7.75457 99.7602 7.46524 100.171 7.29439C100.582 7.12354 101.034 7.07883 101.471 7.16593C101.907 7.25303 102.308 7.46802 102.622 7.78371C102.937 8.0994 103.151 8.50162 103.238 8.93949C103.325 9.37737 103.28 9.83124 103.11 10.2437C102.94 10.6562 102.651 11.0087 102.282 11.2568C101.912 11.5048 101.477 11.6372 101.032 11.6372C100.437 11.6312 99.8686 11.3915 99.448 10.9695C99.0275 10.5474 98.7886 9.97671 98.7827 9.37987ZM99.1614 12.7405H102.911V25.2811H99.1563L99.1614 12.7405Z" fill="#1E1B1B"/>
<path d="M119.098 19.0108C119.141 19.8396 119.021 20.6688 118.744 21.4507C118.467 22.2327 118.038 22.9519 117.483 23.5671C116.928 24.1824 116.257 24.6814 115.51 25.0355C114.762 25.3897 113.951 25.5919 113.125 25.6307C112.431 25.6687 111.736 25.5511 111.092 25.2865C110.449 25.0218 109.871 24.6167 109.403 24.1005V30.2961H105.654V12.7404H109.403V13.9185C109.872 13.4027 110.449 12.9979 111.093 12.7334C111.736 12.469 112.431 12.3515 113.125 12.3896C113.951 12.4281 114.762 12.6303 115.51 12.9845C116.258 13.3387 116.929 13.8378 117.484 14.4532C118.039 15.0686 118.468 15.788 118.745 16.5702C119.022 17.3524 119.142 18.1818 119.098 19.0108ZM115.349 19.0108C115.335 18.4238 115.148 17.8543 114.812 17.3734C114.477 16.8925 114.007 16.5217 113.463 16.3073C112.918 16.0928 112.322 16.0444 111.751 16.1679C111.179 16.2915 110.656 16.5816 110.247 17.0019C109.839 17.4222 109.563 17.9541 109.454 18.531C109.346 19.1079 109.409 19.7041 109.636 20.245C109.864 20.786 110.245 21.2477 110.732 21.5723C111.22 21.8969 111.792 22.07 112.377 22.0699C112.778 22.0878 113.179 22.0204 113.553 21.872C113.927 21.7235 114.265 21.4975 114.546 21.2086C114.827 20.9198 115.043 20.5746 115.182 20.1959C115.32 19.8171 115.377 19.4132 115.349 19.0108Z" fill="#1E1B1B"/>
<path d="M130.666 21.5178C130.666 24.4021 128.168 25.6308 125.469 25.6308C124.379 25.7299 123.284 25.4985 122.326 24.9665C121.368 24.4344 120.592 23.6263 120.096 22.6464L123.344 20.7907C123.475 21.2436 123.757 21.6376 124.143 21.9068C124.529 22.1761 124.996 22.3044 125.464 22.2702C126.363 22.2702 126.814 21.994 126.814 21.4937C126.814 20.113 120.665 20.8413 120.665 16.5028C120.665 13.7679 122.965 12.3897 125.564 12.3897C126.541 12.3587 127.508 12.5912 128.365 13.0631C129.222 13.535 129.937 14.229 130.436 15.0726L127.238 16.803C127.097 16.4745 126.864 16.1947 126.566 15.9985C126.269 15.8023 125.92 15.6984 125.564 15.6997C124.914 15.6997 124.514 15.953 124.514 16.4014C124.519 17.8316 130.666 16.8777 130.666 21.5178Z" fill="#1E1B1B"/>
<path d="M144.36 12.7407V25.2814H140.611V24.102C140.179 24.6224 139.629 25.0324 139.009 25.2984C138.388 25.5644 137.713 25.6788 137.039 25.6322C134.515 25.6322 132.369 23.8271 132.369 20.4386V12.7407H136.118V19.8876C136.086 20.1863 136.12 20.4882 136.217 20.7724C136.314 21.0567 136.471 21.3163 136.678 21.5333C136.885 21.7503 137.136 21.9195 137.415 22.0291C137.693 22.1386 137.992 22.1859 138.291 22.1677C139.666 22.1677 140.615 21.3659 140.615 19.5849V12.7445L144.36 12.7407Z" fill="#1E1B1B"/>
<path d="M165.855 17.5808V25.28H162.106V17.9063C162.106 16.6523 161.507 15.8504 160.308 15.8504C159.058 15.8504 158.358 16.7283 158.358 18.2078V25.28H154.61V17.9063C154.61 16.6523 154.01 15.8504 152.81 15.8504C151.561 15.8504 150.861 16.7283 150.861 18.2078V25.28H147.113V12.7393H150.861V13.892C151.25 13.3807 151.76 12.9751 152.345 12.7124C152.93 12.4498 153.571 12.3384 154.21 12.3884C154.851 12.357 155.49 12.4928 156.064 12.7827C156.637 13.0727 157.126 13.5068 157.483 14.0428C157.898 13.482 158.448 13.0362 159.082 12.7468C159.716 12.4575 160.412 12.3342 161.107 12.3884C163.976 12.3897 165.855 14.4456 165.855 17.5808Z" fill="#1E1B1B"/>
<path d="M169.026 12.6633C170.562 12.6633 171.807 11.4134 171.807 9.87146C171.807 8.32955 170.562 7.07959 169.026 7.07959C167.489 7.07959 166.244 8.32955 166.244 9.87146C166.244 11.4134 167.489 12.6633 169.026 12.6633Z" fill="#1E1B1B"/>
</svg>
