<svg width="152" height="35" viewBox="0 0 152 35" fill="none" xmlns="http://www.w3.org/2000/svg">
<path d="M44.25 10.031H48.0569V25.3964H44.25V10.031ZM49.567 19.5948C49.567 15.7946 51.9019 13.5272 55.5058 13.5272C59.1097 13.5272 61.4446 15.7946 61.4446 19.5948C61.4446 23.395 59.1605 25.6751 55.5058 25.6751C51.8512 25.6751 49.567 23.4583 49.567 19.5948ZM57.625 19.5948C57.625 17.5047 56.8002 16.276 55.5058 16.276C54.2115 16.276 53.3993 17.5427 53.3993 19.5948C53.3993 21.6469 54.1988 22.8883 55.5058 22.8883C56.8129 22.8883 57.625 21.7229 57.625 19.6075V19.5948ZM62.8786 26.1438H66.5332C66.7071 26.5295 67.0012 26.8489 67.3716 27.0543C67.742 27.2597 68.169 27.3402 68.589 27.2839C70.0356 27.2839 70.797 26.4985 70.797 25.3584V23.2303H70.7208C70.4175 23.8826 69.9253 24.4291 69.3078 24.7994C68.6903 25.1697 67.9758 25.3468 67.2565 25.3078C64.4775 25.3078 62.6375 23.1923 62.6375 19.5568C62.6375 15.9213 64.3886 13.6285 67.3073 13.6285C68.0491 13.5995 68.7821 13.7975 69.4081 14.1959C70.0341 14.5944 70.5231 15.1743 70.8097 15.858V13.7425H74.6166V25.2698C74.6166 28.0439 72.1675 29.7667 68.5509 29.7667C65.1881 29.7667 63.0943 28.2592 62.8786 26.1565V26.1438ZM70.8097 19.5821C70.8097 17.7327 69.9594 16.5673 68.6143 16.5673C67.2692 16.5673 66.4444 17.7201 66.4444 19.5821C66.4444 21.4442 67.2565 22.4956 68.6143 22.4956C69.9721 22.4956 70.8097 21.4696 70.8097 19.5948V19.5821ZM76.0505 19.5821C76.0505 15.782 78.3854 13.5145 81.9893 13.5145C85.5932 13.5145 87.9408 15.782 87.9408 19.5821C87.9408 23.3823 85.6567 25.6624 81.9893 25.6624C78.322 25.6624 76.0505 23.4583 76.0505 19.5948V19.5821ZM84.1085 19.5821C84.1085 17.492 83.2837 16.2633 81.9893 16.2633C80.695 16.2633 79.9463 17.5427 79.9463 19.6075C79.9463 21.6723 80.7457 22.901 82.0401 22.901C83.3345 22.901 84.1085 21.7229 84.1085 19.6075V19.5821ZM89.3875 10.9811C89.3775 10.5974 89.4819 10.2194 89.6874 9.89497C89.8928 9.57057 90.1902 9.31437 90.5417 9.15887C90.8933 9.00337 91.2831 8.95555 91.6619 9.02149C92.0407 9.08743 92.3913 9.26415 92.6694 9.52925C92.9474 9.79435 93.1403 10.1359 93.2237 10.5106C93.3071 10.8853 93.2771 11.2762 93.1376 11.6339C92.9981 11.9915 92.7554 12.2998 92.4402 12.5196C92.125 12.7394 91.7515 12.8608 91.3671 12.8685C91.1122 12.886 90.8565 12.8506 90.616 12.7648C90.3755 12.6789 90.1554 12.5443 89.9695 12.3694C89.7836 12.1945 89.6359 11.9832 89.5358 11.7486C89.4356 11.5141 89.3851 11.2614 89.3875 11.0064V10.9811ZM89.3875 13.7679H93.1944V25.3964H89.3875V13.7679ZM107.014 19.5821C107.014 23.3823 105.326 25.5484 102.433 25.5484C101.691 25.596 100.952 25.4149 100.317 25.0298C99.6811 24.6447 99.1794 24.074 98.8794 23.395H98.8033V29.1206H94.9963V13.7425H98.8033V15.82H98.8794C99.1655 15.1297 99.6576 14.5442 100.289 14.1431C100.92 13.7419 101.66 13.5445 102.407 13.5778C105.326 13.6285 107.064 15.8073 107.064 19.6075L107.014 19.5821ZM103.207 19.5821C103.207 17.7327 102.356 16.5547 101.024 16.5547C99.6916 16.5547 98.8413 17.7454 98.8286 19.5821C98.816 21.4189 99.6916 22.597 101.024 22.597C102.356 22.597 103.207 21.4442 103.207 19.6075V19.5821ZM113.549 13.5018C116.709 13.5018 118.625 14.9966 118.714 17.3907H115.249C115.249 16.5673 114.564 16.048 113.511 16.048C112.457 16.048 111.988 16.4533 111.988 17.0487C111.988 17.6441 112.407 17.8341 113.257 18.0114L115.693 18.5054C118.016 18.9994 119.005 19.9368 119.005 21.6976C119.005 24.1044 116.81 25.6498 113.574 25.6498C110.338 25.6498 108.219 24.1044 108.054 21.7356H111.721C111.836 22.597 112.521 23.1037 113.638 23.1037C114.754 23.1037 115.262 22.7363 115.262 22.1283C115.262 21.5202 114.907 21.3936 113.993 21.2036L111.798 20.7349C109.526 20.2662 108.333 19.0628 108.333 17.2894C108.359 15.0093 110.402 13.5272 113.549 13.5272V13.5018ZM131.708 25.3711H128.04V23.205H127.964C127.763 23.9323 127.318 24.5688 126.704 25.0089C126.09 25.449 125.344 25.6662 124.589 25.6244C124.01 25.6573 123.432 25.5658 122.892 25.3562C122.352 25.1466 121.863 24.8237 121.459 24.4094C121.055 23.9951 120.745 23.4991 120.549 22.9547C120.353 22.4104 120.277 21.8305 120.325 21.2542V13.7425H124.132V20.3802C124.132 21.7609 124.843 22.4956 126.023 22.4956C126.3 22.4962 126.573 22.4377 126.825 22.3241C127.078 22.2104 127.303 22.0443 127.485 21.8368C127.668 21.6292 127.804 21.3851 127.884 21.1208C127.965 20.8565 127.988 20.5781 127.952 20.3042V13.7425H131.759L131.708 25.3711ZM133.548 13.7425H137.228V15.9846H137.304C137.506 15.267 137.941 14.6365 138.54 14.1918C139.139 13.7471 139.869 13.5134 140.616 13.5272C141.376 13.4665 142.13 13.6934 142.73 14.1628C143.329 14.6323 143.73 15.3098 143.852 16.0606H143.928C144.158 15.3018 144.635 14.641 145.283 14.1823C145.931 13.7236 146.713 13.4931 147.507 13.5272C148.024 13.5098 148.54 13.6014 149.02 13.7959C149.5 13.9905 149.933 14.2836 150.292 14.6564C150.651 15.0291 150.928 15.4731 151.104 15.9594C151.28 16.4458 151.351 16.9637 151.313 17.4794V25.3964H147.507V18.4928C147.507 17.226 146.936 16.6433 145.87 16.6433C145.632 16.6413 145.397 16.6902 145.179 16.7868C144.962 16.8833 144.768 17.0252 144.611 17.2028C144.453 17.3805 144.336 17.5899 144.266 17.8168C144.196 18.0437 144.176 18.2828 144.207 18.5181V25.3964H140.591V18.4421C140.591 17.2767 140.02 16.6433 138.979 16.6433C138.739 16.6434 138.501 16.6944 138.282 16.7928C138.063 16.8913 137.867 17.0351 137.707 17.2146C137.548 17.3942 137.428 17.6055 137.357 17.8345C137.285 18.0636 137.263 18.3052 137.291 18.5434V25.3964H133.484L133.548 13.7425Z" fill="#1E1B1B"/>
<path d="M33.6035 10.7278C32.9578 9.25379 32.103 7.88012 31.0656 6.64895C29.532 4.77461 27.6181 3.24574 25.45 2.16296C23.2818 1.08017 20.9085 0.468028 18.4862 0.366806C16.064 0.265584 13.6477 0.67758 11.3965 1.57568C9.14526 2.47379 7.11009 3.83763 5.42491 5.57746C3.73974 7.31728 2.44279 9.39363 1.61941 11.6699C0.796034 13.9461 0.464903 16.3706 0.647815 18.7837C0.830727 21.1969 1.52353 23.5441 2.68064 25.6707C3.83774 27.7973 5.4329 29.6552 7.36113 31.1222C8.59839 32.0822 9.96552 32.8626 11.4219 33.4403C13.4637 34.2755 15.6489 34.7058 17.8556 34.707C22.4104 34.6969 26.7755 32.8845 29.9939 29.6671C33.2123 26.4496 35.0215 22.0896 35.0248 17.5428C35.0281 15.1975 34.5442 12.877 33.6035 10.7278ZM17.8429 3.84947C19.8244 3.84926 21.7821 4.2816 23.5786 5.1162C23.1405 5.30515 22.6799 5.43713 22.2081 5.50889C20.6557 5.73322 19.2175 6.4527 18.1083 7.55994C16.9991 8.66718 16.2783 10.1028 16.0536 11.6525C15.955 12.5217 15.559 13.3302 14.9325 13.9417C14.306 14.5533 13.4874 14.9304 12.6147 15.0094C11.0622 15.2337 9.62405 15.9532 8.51485 17.0604C7.40564 18.1676 6.68489 19.6033 6.46016 21.153C6.38407 21.9794 6.03085 22.756 5.45767 23.3571C4.4687 21.2711 4.02443 18.9693 4.1662 16.6659C4.30797 14.3624 5.03117 12.1322 6.2685 10.1828C7.50584 8.23337 9.2171 6.62807 11.243 5.51629C13.2689 4.40452 15.5437 3.82241 17.8556 3.82414L17.8429 3.84947ZM7.34844 26.4099C7.50072 26.2706 7.653 26.1439 7.80527 25.9919C8.93422 24.8993 9.65889 23.457 9.86101 21.9004C9.94297 21.0254 10.3343 20.2081 10.965 19.5949C11.5719 18.9643 12.3888 18.5769 13.2619 18.5055C14.8143 18.2812 16.2525 17.5617 17.3617 16.4545C18.4709 15.3472 19.1917 13.9116 19.4164 12.3619C19.4713 11.4467 19.8647 10.5845 20.5204 9.94244C21.1423 9.32409 21.9669 8.95072 22.8426 8.89105C24.2689 8.69517 25.599 8.06225 26.6496 7.07963C27.8458 8.0703 28.8593 9.26207 29.6443 10.6011C29.5961 10.6662 29.5408 10.7257 29.4794 10.7785C28.8737 11.4146 28.0578 11.8106 27.1825 11.8932C25.6285 12.1136 24.1881 12.8318 23.0782 13.9398C21.9683 15.0477 21.2488 16.4855 21.028 18.0368C20.9386 18.9089 20.5499 19.7233 19.9278 20.342C19.3056 20.9607 18.4884 21.3456 17.6145 21.4317C16.0575 21.6543 14.6139 22.3723 13.4983 23.4791C12.3827 24.5859 11.6545 26.0225 11.4219 27.5753C11.3536 28.1944 11.1406 28.7888 10.8001 29.3107C9.49808 28.5391 8.33201 27.5591 7.34844 26.4099ZM17.8429 31.2995C16.5552 31.3009 15.2737 31.1218 14.0359 30.7675C14.4594 29.9796 14.7346 29.1209 14.8481 28.234C14.937 27.3639 15.3239 26.551 15.9435 25.9326C16.563 25.3141 17.3773 24.9279 18.2489 24.8392C19.8037 24.6174 21.2447 23.899 22.3564 22.7915C23.4682 21.6841 24.1908 20.2471 24.4162 18.6955C24.5051 17.8254 24.892 17.0126 25.5115 16.3941C26.1311 15.7757 26.9454 15.3895 27.817 15.3007C28.987 15.1488 30.1022 14.7139 31.0656 14.034C31.6005 16.0581 31.6639 18.1776 31.2508 20.23C30.8378 22.2824 29.9592 24.213 28.6826 25.8738C27.406 27.5346 25.7653 28.8814 23.8863 29.811C22.0073 30.7405 19.9399 31.228 17.8429 31.2362V31.2995Z" fill="#1E1B1B"/>
</svg>
