<svg width="48" height="48" xmlns="http://www.w3.org/2000/svg">

 <g>
  <title>background</title>
  <rect fill="none" id="canvas_background" height="602" width="802" y="-1" x="-1"/>
 </g>
 <g>
  <title>Layer 1</title>
  <circle id="svg_1" fill="white" transform="rotate(-180 24,24) " r="24" cy="24" cx="24"/>
  <path transform="rotate(180 24.220661163330078,24) " id="svg_2" fill="#1E1B1B" d="m34.2852,25c0.5522,0 1,-0.4477 1,-1c0,-0.5523 -0.4478,-1 -1,-1l0,2zm-20.8362,-1.7071c-0.3905,0.3905 -0.3905,1.0237 0,1.4142l6.364,6.364c0.3905,0.3905 1.0237,0.3905 1.4142,0c0.3905,-0.3906 0.3905,-1.0237 0,-1.4142l-5.6569,-5.6569l5.6569,-5.6569c0.3905,-0.3905 0.3905,-1.0236 0,-1.4142c-0.3905,-0.3905 -1.0237,-0.3905 -1.4142,0l-6.364,6.364zm20.8362,-0.2929l-20.1291,0l0,2l20.1291,0l0,-2z"/>
 </g>
</svg>