<svg width="140" height="48" viewBox="0 0 140 48" fill="none" xmlns="http://www.w3.org/2000/svg">
<g filter="url(#filter0_b_703_92)">
<path d="M16 24C16 17.3726 21.3726 12 28 12C34.6274 12 40 17.3726 40 24C40 30.6274 34.6274 36 28 36C21.3726 36 16 30.6274 16 24Z" fill="#1E1B1B"/>
</g>
<path d="M24.9927 25.7144V22.18C24.9927 20.6734 24.9927 19.92 25.4834 19.6296C25.9741 19.3392 26.6345 19.7018 27.9552 20.4269L30.9846 22.0901C32.3231 22.8249 32.9924 23.1924 33.0071 23.7668C33.0218 24.3412 32.3722 24.7424 31.0731 25.5448L28.0437 27.416C26.6936 28.2499 26.0185 28.6668 25.5056 28.3807C24.9927 28.0947 24.9927 27.3012 24.9927 25.7144Z" fill="white"/>
<path d="M53.7734 25.2578H50.8125V23.7031H53.7734C54.2891 23.7031 54.7057 23.6198 55.0234 23.4531C55.3411 23.2865 55.5729 23.0573 55.7188 22.7656C55.8698 22.4688 55.9453 22.1302 55.9453 21.75C55.9453 21.3906 55.8698 21.0547 55.7188 20.7422C55.5729 20.4245 55.3411 20.1693 55.0234 19.9766C54.7057 19.7839 54.2891 19.6875 53.7734 19.6875H51.4141V29.5H49.4531V18.125H53.7734C54.6536 18.125 55.401 18.2812 56.0156 18.5938C56.6354 18.901 57.1068 19.3281 57.4297 19.875C57.7526 20.4167 57.9141 21.0365 57.9141 21.7344C57.9141 22.4688 57.7526 23.099 57.4297 23.625C57.1068 24.151 56.6354 24.5547 56.0156 24.8359C55.401 25.1172 54.6536 25.2578 53.7734 25.2578ZM61.5 17.5V29.5H59.6094V17.5L61.5 17.5ZM68.3281 27.8047V23.7734C68.3281 23.4714 68.2734 23.2109 68.1641 22.9922C68.0547 22.7734 67.888 22.6042 67.6641 22.4844C67.4453 22.3646 67.1693 22.3047 66.8359 22.3047C66.5286 22.3047 66.263 22.3568 66.0391 22.4609C65.8151 22.5651 65.6406 22.7057 65.5156 22.8828C65.3906 23.0599 65.3281 23.2604 65.3281 23.4844L63.4531 23.4844C63.4531 23.151 63.5339 22.8281 63.6953 22.5156C63.8568 22.2031 64.0911 21.9245 64.3984 21.6797C64.7057 21.4349 65.0729 21.2422 65.5 21.1016C65.9271 20.9609 66.4062 20.8906 66.9375 20.8906C67.5729 20.8906 68.1354 20.9974 68.625 21.2109C69.1198 21.4245 69.5078 21.7474 69.7891 22.1797C70.0755 22.6068 70.2188 23.1432 70.2188 23.7891V27.5469C70.2188 27.9323 70.2448 28.2786 70.2969 28.5859C70.3542 28.888 70.4349 29.151 70.5391 29.375V29.5H68.6094C68.5208 29.2969 68.4505 29.0391 68.3984 28.7266C68.3516 28.4089 68.3281 28.1016 68.3281 27.8047ZM68.6016 24.3594L68.6172 25.5234H67.2656C66.9167 25.5234 66.6094 25.5573 66.3438 25.625C66.0781 25.6875 65.8568 25.7813 65.6797 25.9063C65.5026 26.0313 65.3698 26.1823 65.2812 26.3594C65.1927 26.5365 65.1484 26.737 65.1484 26.9609C65.1484 27.1849 65.2005 27.3906 65.3047 27.5781C65.4089 27.7604 65.5599 27.9036 65.7578 28.0078C65.9609 28.112 66.2057 28.1641 66.4922 28.1641C66.8776 28.1641 67.2135 28.0859 67.5 27.9297C67.7917 27.7682 68.0208 27.5729 68.1875 27.3438C68.3542 27.1094 68.4427 26.888 68.4531 26.6797L69.0625 27.5156C69 27.7292 68.8932 27.9583 68.7422 28.2031C68.5911 28.4479 68.3932 28.6823 68.1484 28.9063C67.9089 29.125 67.6198 29.3047 67.2812 29.4453C66.9479 29.5859 66.5625 29.6563 66.125 29.6563C65.5729 29.6563 65.0807 29.5469 64.6484 29.3281C64.2161 29.1042 63.8776 28.8047 63.6328 28.4297C63.388 28.0495 63.2656 27.6198 63.2656 27.1406C63.2656 26.6927 63.349 26.2969 63.5156 25.9531C63.6875 25.6042 63.9375 25.3125 64.2656 25.0781C64.599 24.8438 65.0052 24.6667 65.4844 24.5469C65.9635 24.4219 66.5104 24.3594 67.125 24.3594H68.6016ZM74.5156 28.5781L76.8125 21.0469L78.8281 21.0469L75.4375 30.7891C75.3594 30.9974 75.2578 31.224 75.1328 31.4688C75.0078 31.7135 74.8438 31.9453 74.6406 32.1641C74.4427 32.388 74.1953 32.5677 73.8984 32.7031C73.6016 32.8438 73.2422 32.9141 72.8203 32.9141C72.6536 32.9141 72.4922 32.8984 72.3359 32.8672C72.1849 32.8411 72.0417 32.8125 71.9062 32.7812L71.8984 31.3438C71.9505 31.349 72.013 31.3542 72.0859 31.3594C72.1641 31.3646 72.2266 31.3672 72.2734 31.3672C72.5859 31.3672 72.8464 31.3281 73.0547 31.25C73.263 31.1771 73.4323 31.0573 73.5625 30.8906C73.6979 30.724 73.8125 30.5 73.9062 30.2188L74.5156 28.5781ZM73.2188 21.0469L75.2266 27.375L75.5625 29.3594L74.2578 29.6953L71.1875 21.0469H73.2188ZM87.9766 27.4219L90.9688 18.125H93.1328L89.0547 29.5H87.5938L87.9766 27.4219ZM85.2109 18.125L88.1797 27.4219L88.5859 29.5H87.1172L83.0547 18.125H85.2109ZM96.2344 21.0469V29.5H94.3438V21.0469H96.2344ZM94.2188 18.8281C94.2188 18.5417 94.3125 18.3047 94.5 18.1172C94.6927 17.9245 94.9583 17.8281 95.2969 17.8281C95.6302 17.8281 95.8932 17.9245 96.0859 18.1172C96.2786 18.3047 96.375 18.5417 96.375 18.8281C96.375 19.1094 96.2786 19.3438 96.0859 19.5313C95.8932 19.7188 95.6302 19.8125 95.2969 19.8125C94.9583 19.8125 94.6927 19.7188 94.5 19.5313C94.3125 19.3438 94.2188 19.1094 94.2188 18.8281ZM103.453 27.75V17.5L105.344 17.5V29.5H103.633L103.453 27.75ZM97.9531 25.3672V25.2031C97.9531 24.5625 98.0286 23.9792 98.1797 23.4531C98.3307 22.9219 98.5495 22.4661 98.8359 22.0859C99.1224 21.7005 99.4714 21.4063 99.8828 21.2031C100.294 20.9948 100.758 20.8906 101.273 20.8906C101.784 20.8906 102.232 20.9896 102.617 21.1875C103.003 21.3854 103.331 21.6693 103.602 22.0391C103.872 22.4036 104.089 22.8411 104.25 23.3516C104.411 23.8568 104.526 24.4193 104.594 25.0391V25.5625C104.526 26.1667 104.411 26.7188 104.25 27.2188C104.089 27.7188 103.872 28.151 103.602 28.5156C103.331 28.8802 103 29.1615 102.609 29.3594C102.224 29.5573 101.773 29.6563 101.258 29.6563C100.747 29.6563 100.286 29.5495 99.875 29.3359C99.4688 29.1224 99.1224 28.8229 98.8359 28.4375C98.5495 28.0521 98.3307 27.599 98.1797 27.0781C98.0286 26.5521 97.9531 25.9818 97.9531 25.3672ZM99.8359 25.2031V25.3672C99.8359 25.7526 99.8698 26.112 99.9375 26.4453C100.01 26.7786 100.122 27.0729 100.273 27.3281C100.424 27.5781 100.62 27.776 100.859 27.9219C101.104 28.0625 101.396 28.1328 101.734 28.1328C102.161 28.1328 102.513 28.0391 102.789 27.8516C103.065 27.6641 103.281 27.4115 103.438 27.0938C103.599 26.7708 103.708 26.4115 103.766 26.0156V24.6016C103.734 24.2943 103.669 24.0078 103.57 23.7422C103.477 23.4766 103.349 23.2448 103.188 23.0469C103.026 22.8438 102.826 22.6875 102.586 22.5781C102.352 22.4635 102.073 22.4063 101.75 22.4063C101.406 22.4063 101.115 22.4792 100.875 22.625C100.635 22.7708 100.438 22.9714 100.281 23.2266C100.13 23.4818 100.018 23.7786 99.9453 24.1172C99.8724 24.4557 99.8359 24.8177 99.8359 25.2031ZM111.039 29.6563C110.414 29.6563 109.849 29.5547 109.344 29.3516C108.844 29.1432 108.417 28.8542 108.062 28.4844C107.714 28.1146 107.445 27.6797 107.258 27.1797C107.07 26.6797 106.977 26.1406 106.977 25.5625V25.25C106.977 24.5885 107.073 23.9896 107.266 23.4531C107.458 22.9167 107.727 22.4583 108.07 22.0781C108.414 21.6927 108.82 21.3984 109.289 21.1953C109.758 20.9922 110.266 20.8906 110.812 20.8906C111.417 20.8906 111.945 20.9922 112.398 21.1953C112.852 21.3984 113.227 21.6849 113.523 22.0547C113.826 22.4193 114.049 22.8542 114.195 23.3594C114.346 23.8646 114.422 24.4219 114.422 25.0313V25.8359L107.891 25.8359V24.4844L112.562 24.4844V24.3359C112.552 23.9974 112.484 23.6797 112.359 23.3828C112.24 23.0859 112.055 22.8464 111.805 22.6641C111.555 22.4818 111.221 22.3906 110.805 22.3906C110.492 22.3906 110.214 22.4583 109.969 22.5938C109.729 22.724 109.529 22.9141 109.367 23.1641C109.206 23.4141 109.081 23.7161 108.992 24.0703C108.909 24.4193 108.867 24.8125 108.867 25.25V25.5625C108.867 25.9323 108.917 26.276 109.016 26.5938C109.12 26.9063 109.271 27.1797 109.469 27.4141C109.667 27.6484 109.906 27.8333 110.188 27.9688C110.469 28.099 110.789 28.1641 111.148 28.1641C111.602 28.1641 112.005 28.0729 112.359 27.8906C112.714 27.7083 113.021 27.4505 113.281 27.1172L114.273 28.0781C114.091 28.3438 113.854 28.599 113.562 28.8438C113.271 29.0833 112.914 29.2786 112.492 29.4297C112.076 29.5807 111.591 29.6563 111.039 29.6563ZM115.531 25.3672V25.1875C115.531 24.5781 115.62 24.013 115.797 23.4922C115.974 22.9661 116.229 22.5104 116.562 22.125C116.901 21.7344 117.312 21.4323 117.797 21.2188C118.286 21 118.839 20.8906 119.453 20.8906C120.073 20.8906 120.625 21 121.109 21.2188C121.599 21.4323 122.013 21.7344 122.352 22.125C122.69 22.5104 122.948 22.9661 123.125 23.4922C123.302 24.013 123.391 24.5781 123.391 25.1875V25.3672C123.391 25.9766 123.302 26.5417 123.125 27.0625C122.948 27.5833 122.69 28.0391 122.352 28.4297C122.013 28.8151 121.602 29.1172 121.117 29.3359C120.633 29.5495 120.083 29.6563 119.469 29.6563C118.849 29.6563 118.294 29.5495 117.805 29.3359C117.32 29.1172 116.909 28.8151 116.57 28.4297C116.232 28.0391 115.974 27.5833 115.797 27.0625C115.62 26.5417 115.531 25.9766 115.531 25.3672ZM117.414 25.1875V25.3672C117.414 25.7474 117.453 26.1068 117.531 26.4453C117.609 26.7839 117.732 27.0807 117.898 27.3359C118.065 27.5911 118.279 27.7917 118.539 27.9375C118.799 28.0833 119.109 28.1563 119.469 28.1563C119.818 28.1563 120.12 28.0833 120.375 27.9375C120.635 27.7917 120.849 27.5911 121.016 27.3359C121.182 27.0807 121.305 26.7839 121.383 26.4453C121.466 26.1068 121.508 25.7474 121.508 25.3672V25.1875C121.508 24.8125 121.466 24.4583 121.383 24.125C121.305 23.7865 121.18 23.487 121.008 23.2266C120.841 22.9661 120.628 22.763 120.367 22.6172C120.112 22.4661 119.807 22.3906 119.453 22.3906C119.099 22.3906 118.792 22.4661 118.531 22.6172C118.276 22.763 118.065 22.9661 117.898 23.2266C117.732 23.487 117.609 23.7865 117.531 24.125C117.453 24.4583 117.414 24.8125 117.414 25.1875Z" fill="#1E1B1B"/>
<defs>
<filter id="filter0_b_703_92" x="-64" y="-68" width="184" height="184" filterUnits="userSpaceOnUse" color-interpolation-filters="sRGB">
<feFlood flood-opacity="0" result="BackgroundImageFix"/>
<feGaussianBlur in="BackgroundImage" stdDeviation="40"/>
<feComposite in2="SourceAlpha" operator="in" result="effect1_backgroundBlur_703_92"/>
<feBlend mode="normal" in="SourceGraphic" in2="effect1_backgroundBlur_703_92" result="shape"/>
</filter>
</defs>
</svg>
