<svg width="36" height="36" viewBox="0 0 36 36" fill="none" xmlns="http://www.w3.org/2000/svg">
<path d="M15.3662 4.82936C16.5032 2.74454 19.4968 2.74453 20.6338 4.82936L22.9256 9.03174C23.3571 9.82292 24.1214 10.3782 25.0072 10.5441L29.7121 11.4252C32.0463 11.8623 32.9713 14.7093 31.3399 16.4349L28.0514 19.9132C27.4323 20.5681 27.1404 21.4666 27.2563 22.3603L27.8723 27.1072C28.1779 29.4621 25.756 31.2217 23.6107 30.2034L19.2865 28.1507C18.4724 27.7642 17.5276 27.7642 16.7135 28.1507L12.3893 30.2034C10.244 31.2217 7.82214 29.4621 8.12772 27.1072L8.74367 22.3603C8.85964 21.4666 8.5677 20.5681 7.94858 19.9132L4.66009 16.4349C3.02866 14.7093 3.95372 11.8623 6.28786 11.4252L10.9928 10.5441C11.8786 10.3782 12.6429 9.82293 13.0744 9.03174L15.3662 4.82936Z" fill="#D7D1C7"/>
<mask id="mask0_705_38" style="mask-type:alpha" maskUnits="userSpaceOnUse" x="3" y="3" width="30" height="28">
<path d="M15.3662 4.82936C16.5032 2.74454 19.4968 2.74453 20.6338 4.82936L22.9256 9.03174C23.3571 9.82292 24.1214 10.3782 25.0072 10.5441L29.7121 11.4252C32.0463 11.8623 32.9713 14.7093 31.3399 16.4349L28.0514 19.9132C27.4323 20.5681 27.1404 21.4666 27.2563 22.3603L27.8723 27.1072C28.1779 29.4621 25.756 31.2217 23.6107 30.2034L19.2865 28.1507C18.4724 27.7642 17.5276 27.7642 16.7135 28.1507L12.3893 30.2034C10.244 31.2217 7.82214 29.4621 8.12772 27.1072L8.74367 22.3603C8.85964 21.4666 8.5677 20.5681 7.94858 19.9132L4.66009 16.4349C3.02866 14.7093 3.95372 11.8623 6.28786 11.4252L10.9928 10.5441C11.8786 10.3782 12.6429 9.82293 13.0744 9.03174L15.3662 4.82936Z" fill="#D7D1C7"/>
</mask>
<g mask="url(#mask0_705_38)">
<rect x="17" y="38" width="16" height="43" transform="rotate(-180 17 38)" fill="#FFB648"/>
</g>
</svg>
