<svg width="586" height="362" viewBox="0 0 586 362" fill="none" xmlns="http://www.w3.org/2000/svg">
<g filter="url(#filter0_d_779_39)">
<rect x="130" y="102" width="326" height="102" rx="51" fill="white" shape-rendering="crispEdges"/>
<rect x="124" y="96" width="338" height="114" rx="57" stroke="#E1E1E1" stroke-opacity="0.43" stroke-width="12" shape-rendering="crispEdges"/>
</g>
<path d="M254.366 139.829C255.503 137.745 258.497 137.745 259.634 139.829L261.926 144.032C262.357 144.823 263.121 145.378 264.007 145.544L268.712 146.425C271.046 146.862 271.971 149.709 270.34 151.435L267.051 154.913C266.432 155.568 266.14 156.467 266.256 157.36L266.872 162.107C267.178 164.462 264.756 166.222 262.611 165.203L258.286 163.151C257.472 162.764 256.528 162.764 255.714 163.151L251.389 165.203C249.244 166.222 246.822 164.462 247.128 162.107L247.744 157.36C247.86 156.467 247.568 155.568 246.949 154.913L243.66 151.435C242.029 149.709 242.954 146.862 245.288 146.425L249.993 145.544C250.879 145.378 251.643 144.823 252.074 144.032L254.366 139.829Z" fill="#FFB648"/>
<path d="M292.366 139.829C293.503 137.745 296.497 137.745 297.634 139.829L299.926 144.032C300.357 144.823 301.121 145.378 302.007 145.544L306.712 146.425C309.046 146.862 309.971 149.709 308.34 151.435L305.051 154.913C304.432 155.568 304.14 156.467 304.256 157.36L304.872 162.107C305.178 164.462 302.756 166.222 300.611 165.203L296.286 163.151C295.472 162.764 294.528 162.764 293.714 163.151L289.389 165.203C287.244 166.222 284.822 164.462 285.128 162.107L285.744 157.36C285.86 156.467 285.568 155.568 284.949 154.913L281.66 151.435C280.029 149.709 280.954 146.862 283.288 146.425L287.993 145.544C288.879 145.378 289.643 144.823 290.074 144.032L292.366 139.829Z" fill="#FFB648"/>
<path d="M329.366 139.829C330.503 137.745 333.497 137.745 334.634 139.829L336.926 144.032C337.357 144.823 338.121 145.378 339.007 145.544L343.712 146.425C346.046 146.862 346.971 149.709 345.34 151.435L342.051 154.913C341.432 155.568 341.14 156.467 341.256 157.36L341.872 162.107C342.178 164.462 339.756 166.222 337.611 165.203L333.286 163.151C332.472 162.764 331.528 162.764 330.714 163.151L326.389 165.203C324.244 166.222 321.822 164.462 322.128 162.107L322.744 157.36C322.86 156.467 322.568 155.568 321.949 154.913L318.66 151.435C317.029 149.709 317.954 146.862 320.288 146.425L324.993 145.544C325.879 145.378 326.643 144.823 327.074 144.032L329.366 139.829Z" fill="#FFB648"/>
<path d="M367.366 139.829C368.503 137.745 371.497 137.745 372.634 139.829L374.926 144.032C375.357 144.823 376.121 145.378 377.007 145.544L381.712 146.425C384.046 146.862 384.971 149.709 383.34 151.435L380.051 154.913C379.432 155.568 379.14 156.467 379.256 157.36L379.872 162.107C380.178 164.462 377.756 166.222 375.611 165.203L371.286 163.151C370.472 162.764 369.528 162.764 368.714 163.151L364.389 165.203C362.244 166.222 359.822 164.462 360.128 162.107L360.744 157.36C360.86 156.467 360.568 155.568 359.949 154.913L356.66 151.435C355.029 149.709 355.954 146.862 358.288 146.425L362.993 145.544C363.879 145.378 364.643 144.823 365.074 144.032L367.366 139.829Z" fill="#FFB648"/>
<path d="M403.366 139.829C404.503 137.745 407.497 137.745 408.634 139.829L410.926 144.032C411.357 144.823 412.121 145.378 413.007 145.544L417.712 146.425C420.046 146.862 420.971 149.709 419.34 151.435L416.051 154.913C415.432 155.568 415.14 156.467 415.256 157.36L415.872 162.107C416.178 164.462 413.756 166.222 411.611 165.203L407.286 163.151C406.472 162.764 405.528 162.764 404.714 163.151L400.389 165.203C398.244 166.222 395.822 164.462 396.128 162.107L396.744 157.36C396.86 156.467 396.568 155.568 395.949 154.913L392.66 151.435C391.029 149.709 391.954 146.862 394.288 146.425L398.993 145.544C399.879 145.378 400.643 144.823 401.074 144.032L403.366 139.829Z" fill="#D7D1C7"/>
<mask id="mask0_779_39" style="mask-type:alpha" maskUnits="userSpaceOnUse" x="391" y="138" width="30" height="28">
<path d="M403.366 139.829C404.503 137.745 407.497 137.745 408.634 139.829L410.926 144.032C411.357 144.823 412.121 145.378 413.007 145.544L417.712 146.425C420.046 146.862 420.971 149.709 419.34 151.435L416.051 154.913C415.432 155.568 415.14 156.467 415.256 157.36L415.872 162.107C416.178 164.462 413.756 166.222 411.611 165.203L407.286 163.151C406.472 162.764 405.528 162.764 404.714 163.151L400.389 165.203C398.244 166.222 395.822 164.462 396.128 162.107L396.744 157.36C396.86 156.467 396.568 155.568 395.949 154.913L392.66 151.435C391.029 149.709 391.954 146.862 394.288 146.425L398.993 145.544C399.879 145.378 400.643 144.823 401.074 144.032L403.366 139.829Z" fill="#D7D1C7"/>
</mask>
<g mask="url(#mask0_779_39)">
<rect x="405" y="173" width="16" height="43" transform="rotate(-180 405 173)" fill="#FFB648"/>
</g>
<path opacity="0.7" d="M170.12 174V162.48H174.672C174.784 162.48 174.917 162.485 175.072 162.496C175.227 162.501 175.376 162.517 175.52 162.544C176.144 162.64 176.667 162.853 177.088 163.184C177.515 163.515 177.835 163.933 178.048 164.44C178.261 164.941 178.368 165.499 178.368 166.112C178.368 167.003 178.136 167.776 177.672 168.432C177.208 169.083 176.528 169.491 175.632 169.656L175.088 169.744H171.544V174H170.12ZM176.976 174L174.704 169.312L176.112 168.88L178.608 174H176.976ZM171.544 168.392H174.624C174.725 168.392 174.84 168.387 174.968 168.376C175.101 168.365 175.227 168.347 175.344 168.32C175.712 168.235 176.011 168.08 176.24 167.856C176.475 167.627 176.645 167.36 176.752 167.056C176.859 166.747 176.912 166.432 176.912 166.112C176.912 165.792 176.859 165.48 176.752 165.176C176.645 164.867 176.475 164.597 176.24 164.368C176.011 164.139 175.712 163.984 175.344 163.904C175.227 163.872 175.101 163.853 174.968 163.848C174.84 163.837 174.725 163.832 174.624 163.832H171.544V168.392ZM182.826 174.24C182.181 174.24 181.639 174.123 181.202 173.888C180.77 173.648 180.442 173.333 180.218 172.944C179.999 172.555 179.89 172.128 179.89 171.664C179.89 171.211 179.975 170.819 180.146 170.488C180.322 170.152 180.567 169.875 180.882 169.656C181.197 169.432 181.573 169.256 182.01 169.128C182.421 169.016 182.879 168.92 183.386 168.84C183.898 168.755 184.415 168.677 184.938 168.608C185.461 168.539 185.949 168.472 186.402 168.408L185.89 168.704C185.906 167.936 185.751 167.368 185.426 167C185.106 166.632 184.551 166.448 183.762 166.448C183.239 166.448 182.781 166.568 182.386 166.808C181.997 167.043 181.722 167.427 181.562 167.96L180.21 167.552C180.418 166.795 180.821 166.2 181.418 165.768C182.015 165.336 182.802 165.12 183.778 165.12C184.562 165.12 185.234 165.261 185.794 165.544C186.359 165.821 186.765 166.243 187.01 166.808C187.133 167.075 187.21 167.365 187.242 167.68C187.274 167.989 187.29 168.315 187.29 168.656V174H186.026V171.928L186.322 172.12C185.997 172.819 185.541 173.347 184.954 173.704C184.373 174.061 183.663 174.24 182.826 174.24ZM183.042 173.048C183.554 173.048 183.997 172.957 184.37 172.776C184.749 172.589 185.053 172.347 185.282 172.048C185.511 171.744 185.661 171.413 185.73 171.056C185.81 170.789 185.853 170.493 185.858 170.168C185.869 169.837 185.874 169.584 185.874 169.408L186.37 169.624C185.906 169.688 185.45 169.749 185.002 169.808C184.554 169.867 184.13 169.931 183.73 170C183.33 170.064 182.97 170.141 182.65 170.232C182.415 170.307 182.194 170.403 181.986 170.52C181.783 170.637 181.618 170.789 181.49 170.976C181.367 171.157 181.306 171.384 181.306 171.656C181.306 171.891 181.365 172.115 181.482 172.328C181.605 172.541 181.791 172.715 182.042 172.848C182.298 172.981 182.631 173.048 183.042 173.048ZM194.194 174C193.682 174.101 193.175 174.141 192.674 174.12C192.178 174.104 191.735 174.005 191.346 173.824C190.957 173.637 190.661 173.349 190.458 172.96C190.287 172.619 190.194 172.275 190.178 171.928C190.167 171.576 190.162 171.179 190.162 170.736V162.96H191.586V170.672C191.586 171.024 191.589 171.325 191.594 171.576C191.605 171.827 191.661 172.043 191.762 172.224C191.954 172.565 192.258 172.765 192.674 172.824C193.095 172.883 193.602 172.867 194.194 172.776V174ZM188.41 166.536V165.36H194.194V166.536H188.41ZM196.108 163.832V162.36H197.532V163.832H196.108ZM196.108 174V165.36H197.532V174H196.108ZM206.085 174V169.672C206.085 169.261 206.047 168.867 205.973 168.488C205.903 168.109 205.778 167.771 205.597 167.472C205.421 167.168 205.181 166.928 204.877 166.752C204.578 166.576 204.199 166.488 203.741 166.488C203.383 166.488 203.058 166.549 202.765 166.672C202.477 166.789 202.229 166.971 202.021 167.216C201.813 167.461 201.65 167.771 201.533 168.144C201.421 168.512 201.365 168.947 201.365 169.448L200.429 169.16C200.429 168.323 200.578 167.605 200.877 167.008C201.181 166.405 201.605 165.944 202.149 165.624C202.698 165.299 203.343 165.136 204.085 165.136C204.645 165.136 205.122 165.224 205.517 165.4C205.911 165.576 206.239 165.811 206.501 166.104C206.762 166.392 206.967 166.717 207.117 167.08C207.266 167.437 207.37 167.803 207.429 168.176C207.493 168.544 207.525 168.893 207.525 169.224V174H206.085ZM199.925 174V165.36H201.205V167.672H201.365V174H199.925ZM213.1 178.08C212.647 178.08 212.204 178.011 211.772 177.872C211.34 177.733 210.943 177.523 210.58 177.24C210.223 176.963 209.924 176.611 209.684 176.184L210.988 175.496C211.202 175.917 211.503 176.224 211.892 176.416C212.287 176.608 212.692 176.704 213.108 176.704C213.658 176.704 214.114 176.603 214.476 176.4C214.839 176.203 215.106 175.907 215.276 175.512C215.452 175.117 215.538 174.627 215.532 174.04V171.68H215.7V165.36H216.964V174.056C216.964 174.291 216.956 174.517 216.94 174.736C216.93 174.955 216.903 175.171 216.86 175.384C216.748 175.997 216.527 176.501 216.196 176.896C215.866 177.296 215.439 177.592 214.916 177.784C214.394 177.981 213.788 178.08 213.1 178.08ZM212.996 174.24C212.191 174.24 211.5 174.04 210.924 173.64C210.348 173.235 209.903 172.688 209.588 172C209.279 171.312 209.124 170.536 209.124 169.672C209.124 168.808 209.279 168.032 209.588 167.344C209.903 166.656 210.348 166.115 210.924 165.72C211.5 165.32 212.188 165.12 212.988 165.12C213.804 165.12 214.49 165.317 215.044 165.712C215.599 166.107 216.018 166.648 216.3 167.336C216.588 168.024 216.732 168.803 216.732 169.672C216.732 170.531 216.588 171.307 216.3 172C216.018 172.688 215.599 173.235 215.044 173.64C214.49 174.04 213.807 174.24 212.996 174.24ZM213.172 172.936C213.754 172.936 214.231 172.797 214.604 172.52C214.978 172.237 215.252 171.851 215.428 171.36C215.61 170.864 215.7 170.301 215.7 169.672C215.7 169.032 215.61 168.469 215.428 167.984C215.252 167.493 214.98 167.112 214.612 166.84C214.244 166.563 213.778 166.424 213.212 166.424C212.626 166.424 212.14 166.568 211.756 166.856C211.378 167.144 211.095 167.533 210.908 168.024C210.727 168.515 210.636 169.064 210.636 169.672C210.636 170.285 210.73 170.84 210.916 171.336C211.103 171.827 211.383 172.216 211.756 172.504C212.135 172.792 212.607 172.936 213.172 172.936Z" fill="black"/>
<path d="M177 153V149.988H169.2V147.612L174.816 135.72H177.684L172.068 147.612H177V142.932H179.544V147.612H181.26V149.988H179.544V153H177ZM183.384 153V150.348H186.036V153H183.384ZM194.223 153.36C193.335 153.36 192.507 153.18 191.739 152.82C190.979 152.452 190.327 151.948 189.783 151.308C189.239 150.66 188.851 149.916 188.619 149.076L191.031 148.428C191.167 148.94 191.399 149.384 191.727 149.76C192.063 150.136 192.455 150.428 192.903 150.636C193.351 150.836 193.815 150.936 194.295 150.936C194.927 150.936 195.499 150.784 196.011 150.48C196.531 150.176 196.939 149.768 197.235 149.256C197.539 148.744 197.691 148.18 197.691 147.564C197.691 146.932 197.535 146.36 197.223 145.848C196.919 145.336 196.507 144.932 195.987 144.636C195.475 144.332 194.911 144.18 194.295 144.18C193.591 144.18 192.995 144.32 192.507 144.6C192.019 144.88 191.639 145.204 191.367 145.572L189.183 144.804L189.711 135.72H199.035V138.084H190.995L192.015 137.136L191.595 143.94L191.103 143.304C191.559 142.848 192.103 142.5 192.735 142.26C193.367 142.02 193.995 141.9 194.619 141.9C195.691 141.9 196.647 142.148 197.487 142.644C198.335 143.14 199.003 143.816 199.491 144.672C199.979 145.52 200.223 146.484 200.223 147.564C200.223 148.636 199.947 149.612 199.395 150.492C198.843 151.364 198.111 152.06 197.199 152.58C196.287 153.1 195.295 153.36 194.223 153.36ZM206.74 135.72H209.272L204.664 153H202.132L206.74 135.72ZM216.807 153.36C215.919 153.36 215.091 153.18 214.323 152.82C213.563 152.452 212.911 151.948 212.367 151.308C211.823 150.66 211.435 149.916 211.203 149.076L213.615 148.428C213.751 148.94 213.983 149.384 214.311 149.76C214.647 150.136 215.039 150.428 215.487 150.636C215.935 150.836 216.399 150.936 216.879 150.936C217.511 150.936 218.083 150.784 218.595 150.48C219.115 150.176 219.523 149.768 219.819 149.256C220.123 148.744 220.275 148.18 220.275 147.564C220.275 146.932 220.119 146.36 219.807 145.848C219.503 145.336 219.091 144.932 218.571 144.636C218.059 144.332 217.495 144.18 216.879 144.18C216.175 144.18 215.579 144.32 215.091 144.6C214.603 144.88 214.223 145.204 213.951 145.572L211.767 144.804L212.295 135.72H221.619V138.084H213.579L214.599 137.136L214.179 143.94L213.687 143.304C214.143 142.848 214.687 142.5 215.319 142.26C215.951 142.02 216.579 141.9 217.203 141.9C218.275 141.9 219.231 142.148 220.071 142.644C220.919 143.14 221.587 143.816 222.075 144.672C222.563 145.52 222.807 146.484 222.807 147.564C222.807 148.636 222.531 149.612 221.979 150.492C221.427 151.364 220.695 152.06 219.783 152.58C218.871 153.1 217.879 153.36 216.807 153.36Z" fill="black"/>
<defs>
<filter id="filter0_d_779_39" x="0" y="0" width="586" height="362" filterUnits="userSpaceOnUse" color-interpolation-filters="sRGB">
<feFlood flood-opacity="0" result="BackgroundImageFix"/>
<feColorMatrix in="SourceAlpha" type="matrix" values="0 0 0 0 0 0 0 0 0 0 0 0 0 0 0 0 0 0 127 0" result="hardAlpha"/>
<feOffset dy="28"/>
<feGaussianBlur stdDeviation="59"/>
<feComposite in2="hardAlpha" operator="out"/>
<feColorMatrix type="matrix" values="0 0 0 0 0.427425 0 0 0 0 0.42375 0 0 0 0 0.45 0 0 0 0.12 0"/>
<feBlend mode="normal" in2="BackgroundImageFix" result="effect1_dropShadow_779_39"/>
<feBlend mode="normal" in="SourceGraphic" in2="effect1_dropShadow_779_39" result="shape"/>
</filter>
</defs>
</svg>
