<svg width="542" height="362" viewBox="0 0 542 362" fill="none" xmlns="http://www.w3.org/2000/svg">
<g filter="url(#filter0_d_482_1626)">
<rect x="130" y="102" width="281.635" height="102" rx="51" fill="url(#paint0_linear_482_1626)" shape-rendering="crispEdges"/>
<rect x="124" y="96" width="293.635" height="114" rx="57" stroke="#E1E1E1" stroke-opacity="0.43" stroke-width="12" shape-rendering="crispEdges"/>
</g>
<path d="M243.228 160.348L238.404 155.548L240.012 153.94L244.812 158.74L243.228 160.348ZM236.892 160.36C235.164 160.36 233.692 159.984 232.476 159.232C231.26 158.472 230.328 157.416 229.68 156.064C229.04 154.712 228.72 153.144 228.72 151.36C228.72 149.576 229.04 148.008 229.68 146.656C230.328 145.304 231.26 144.252 232.476 143.5C233.692 142.74 235.164 142.36 236.892 142.36C238.612 142.36 240.08 142.74 241.296 143.5C242.52 144.252 243.452 145.304 244.092 146.656C244.732 148.008 245.052 149.576 245.052 151.36C245.052 153.144 244.732 154.712 244.092 156.064C243.452 157.416 242.52 158.472 241.296 159.232C240.08 159.984 238.612 160.36 236.892 160.36ZM236.892 157.972C238.116 157.988 239.132 157.72 239.94 157.168C240.756 156.608 241.368 155.832 241.776 154.84C242.184 153.84 242.388 152.68 242.388 151.36C242.388 150.04 242.184 148.888 241.776 147.904C241.368 146.912 240.756 146.14 239.94 145.588C239.132 145.036 238.116 144.756 236.892 144.748C235.668 144.732 234.648 145 233.832 145.552C233.024 146.104 232.416 146.88 232.008 147.88C231.6 148.88 231.392 150.04 231.384 151.36C231.376 152.68 231.576 153.836 231.984 154.828C232.392 155.812 233.004 156.58 233.82 157.132C234.644 157.684 235.668 157.964 236.892 157.972ZM251.61 160.348C250.714 160.348 249.962 160.204 249.354 159.916C248.746 159.628 248.25 159.252 247.866 158.788C247.49 158.316 247.202 157.804 247.002 157.252C246.802 156.7 246.666 156.16 246.594 155.632C246.522 155.104 246.486 154.64 246.486 154.24V147.04H249.03V153.412C249.03 153.916 249.07 154.436 249.15 154.972C249.238 155.5 249.398 155.992 249.63 156.448C249.87 156.904 250.202 157.272 250.626 157.552C251.058 157.832 251.618 157.972 252.306 157.972C252.754 157.972 253.178 157.9 253.578 157.756C253.978 157.604 254.326 157.364 254.622 157.036C254.926 156.708 255.162 156.276 255.33 155.74C255.506 155.204 255.594 154.552 255.594 153.784L257.154 154.372C257.154 155.548 256.934 156.588 256.494 157.492C256.054 158.388 255.422 159.088 254.598 159.592C253.774 160.096 252.778 160.348 251.61 160.348ZM255.894 160V156.256H255.594V147.04H258.126V160H255.894ZM261.011 144.916V142.48H263.519V144.916H261.011ZM261.011 160V147.04H263.519V160H261.011ZM271.947 160.36C270.619 160.36 269.491 160.064 268.563 159.472C267.635 158.88 266.923 158.068 266.427 157.036C265.939 156.004 265.691 154.832 265.683 153.52C265.691 152.184 265.947 151.004 266.451 149.98C266.955 148.948 267.675 148.14 268.611 147.556C269.547 146.972 270.671 146.68 271.983 146.68C273.399 146.68 274.607 147.032 275.607 147.736C276.615 148.44 277.279 149.404 277.599 150.628L275.103 151.348C274.855 150.62 274.447 150.056 273.879 149.656C273.319 149.248 272.675 149.044 271.947 149.044C271.123 149.044 270.447 149.24 269.919 149.632C269.391 150.016 268.999 150.544 268.743 151.216C268.487 151.888 268.355 152.656 268.347 153.52C268.355 154.856 268.659 155.936 269.259 156.76C269.867 157.584 270.763 157.996 271.947 157.996C272.755 157.996 273.407 157.812 273.903 157.444C274.407 157.068 274.791 156.532 275.055 155.836L277.599 156.436C277.175 157.7 276.475 158.672 275.499 159.352C274.523 160.024 273.339 160.36 271.947 160.36ZM279.311 160L279.323 142.72H281.867V153.28L286.955 147.04H290.147L284.771 153.52L290.699 160H287.291L281.867 153.76V160H279.311ZM300.23 160.348C298.654 160.348 297.37 160 296.378 159.304C295.386 158.608 294.778 157.628 294.554 156.364L297.122 155.968C297.282 156.64 297.65 157.172 298.226 157.564C298.81 157.948 299.534 158.14 300.398 158.14C301.182 158.14 301.794 157.98 302.234 157.66C302.682 157.34 302.906 156.9 302.906 156.34C302.906 156.012 302.826 155.748 302.666 155.548C302.514 155.34 302.19 155.144 301.694 154.96C301.198 154.776 300.442 154.548 299.426 154.276C298.314 153.988 297.43 153.68 296.774 153.352C296.126 153.016 295.662 152.628 295.382 152.188C295.11 151.74 294.974 151.2 294.974 150.568C294.974 149.784 295.182 149.1 295.598 148.516C296.014 147.932 296.598 147.48 297.35 147.16C298.11 146.84 298.998 146.68 300.014 146.68C301.006 146.68 301.89 146.836 302.666 147.148C303.442 147.46 304.07 147.904 304.55 148.48C305.03 149.048 305.318 149.716 305.414 150.484L302.846 150.952C302.758 150.328 302.466 149.836 301.97 149.476C301.474 149.116 300.83 148.92 300.038 148.888C299.278 148.856 298.662 148.984 298.19 149.272C297.718 149.552 297.482 149.94 297.482 150.436C297.482 150.724 297.57 150.968 297.746 151.168C297.93 151.368 298.282 151.56 298.802 151.744C299.322 151.928 300.09 152.148 301.106 152.404C302.194 152.684 303.058 152.996 303.698 153.34C304.338 153.676 304.794 154.08 305.066 154.552C305.346 155.016 305.486 155.58 305.486 156.244C305.486 157.524 305.018 158.528 304.082 159.256C303.154 159.984 301.87 160.348 300.23 160.348ZM313.169 160.36C311.881 160.36 310.749 160.08 309.773 159.52C308.805 158.952 308.049 158.164 307.505 157.156C306.969 156.14 306.701 154.964 306.701 153.628C306.701 152.212 306.965 150.984 307.493 149.944C308.029 148.904 308.773 148.1 309.725 147.532C310.677 146.964 311.785 146.68 313.049 146.68C314.369 146.68 315.493 146.988 316.421 147.604C317.349 148.212 318.041 149.08 318.497 150.208C318.961 151.336 319.145 152.676 319.049 154.228H316.541V153.316C316.525 151.812 316.237 150.7 315.677 149.98C315.125 149.26 314.281 148.9 313.145 148.9C311.889 148.9 310.945 149.296 310.313 150.088C309.681 150.88 309.365 152.024 309.365 153.52C309.365 154.944 309.681 156.048 310.313 156.832C310.945 157.608 311.857 157.996 313.049 157.996C313.833 157.996 314.509 157.82 315.077 157.468C315.653 157.108 316.101 156.596 316.421 155.932L318.881 156.712C318.377 157.872 317.613 158.772 316.589 159.412C315.565 160.044 314.425 160.36 313.169 160.36ZM308.549 154.228V152.272H317.801V154.228H308.549ZM321.022 160V147.04H323.254V150.184L322.942 149.776C323.102 149.36 323.31 148.98 323.566 148.636C323.822 148.284 324.118 147.996 324.454 147.772C324.782 147.532 325.146 147.348 325.546 147.22C325.954 147.084 326.37 147.004 326.794 146.98C327.218 146.948 327.626 146.968 328.018 147.04V149.392C327.594 149.28 327.122 149.248 326.602 149.296C326.09 149.344 325.618 149.508 325.186 149.788C324.778 150.052 324.454 150.372 324.214 150.748C323.982 151.124 323.814 151.544 323.71 152.008C323.606 152.464 323.554 152.948 323.554 153.46V160H321.022ZM333.087 160L328.383 147.04H330.915L334.359 156.856L337.803 147.04H340.335L335.631 160H333.087ZM342.017 144.916V142.48H344.525V144.916H342.017ZM342.017 160V147.04H344.525V160H342.017ZM352.952 160.36C351.624 160.36 350.496 160.064 349.568 159.472C348.64 158.88 347.928 158.068 347.432 157.036C346.944 156.004 346.696 154.832 346.688 153.52C346.696 152.184 346.952 151.004 347.456 149.98C347.96 148.948 348.68 148.14 349.616 147.556C350.552 146.972 351.676 146.68 352.988 146.68C354.404 146.68 355.612 147.032 356.612 147.736C357.62 148.44 358.284 149.404 358.604 150.628L356.108 151.348C355.86 150.62 355.452 150.056 354.884 149.656C354.324 149.248 353.68 149.044 352.952 149.044C352.128 149.044 351.452 149.24 350.924 149.632C350.396 150.016 350.004 150.544 349.748 151.216C349.492 151.888 349.36 152.656 349.352 153.52C349.36 154.856 349.664 155.936 350.264 156.76C350.872 157.584 351.768 157.996 352.952 157.996C353.76 157.996 354.412 157.812 354.908 157.444C355.412 157.068 355.796 156.532 356.06 155.836L358.604 156.436C358.18 157.7 357.48 158.672 356.504 159.352C355.528 160.024 354.344 160.36 352.952 160.36ZM365.726 160.36C364.438 160.36 363.306 160.08 362.33 159.52C361.362 158.952 360.606 158.164 360.062 157.156C359.526 156.14 359.258 154.964 359.258 153.628C359.258 152.212 359.522 150.984 360.05 149.944C360.586 148.904 361.33 148.1 362.282 147.532C363.234 146.964 364.342 146.68 365.606 146.68C366.926 146.68 368.05 146.988 368.978 147.604C369.906 148.212 370.598 149.08 371.054 150.208C371.518 151.336 371.702 152.676 371.606 154.228H369.098V153.316C369.082 151.812 368.794 150.7 368.234 149.98C367.682 149.26 366.838 148.9 365.702 148.9C364.446 148.9 363.502 149.296 362.87 150.088C362.238 150.88 361.922 152.024 361.922 153.52C361.922 154.944 362.238 156.048 362.87 156.832C363.502 157.608 364.414 157.996 365.606 157.996C366.39 157.996 367.066 157.82 367.634 157.468C368.21 157.108 368.658 156.596 368.978 155.932L371.438 156.712C370.934 157.872 370.17 158.772 369.146 159.412C368.122 160.044 366.982 160.36 365.726 160.36ZM361.106 154.228V152.272H370.358V154.228H361.106Z" fill="#1E1B1B"/>
<ellipse cx="178.763" cy="152" rx="34.8312" ry="35" fill="#5CBA99"/>
<path d="M194.904 160V155.752C194.904 155.416 194.875 155.072 194.816 154.72C194.763 154.363 194.656 154.032 194.496 153.728C194.342 153.424 194.12 153.179 193.832 152.992C193.55 152.805 193.179 152.712 192.72 152.712C192.422 152.712 192.139 152.763 191.872 152.864C191.606 152.96 191.371 153.117 191.168 153.336C190.971 153.555 190.814 153.843 190.696 154.2C190.584 154.557 190.528 154.992 190.528 155.504L189.488 155.112C189.488 154.328 189.635 153.637 189.928 153.04C190.222 152.437 190.643 151.968 191.192 151.632C191.742 151.296 192.406 151.128 193.184 151.128C193.782 151.128 194.283 151.224 194.688 151.416C195.094 151.608 195.422 151.861 195.672 152.176C195.928 152.485 196.123 152.824 196.256 153.192C196.39 153.56 196.48 153.92 196.528 154.272C196.576 154.624 196.6 154.933 196.6 155.2V160H194.904ZM188.832 160V148.48H190.328V154.696H190.528V160H188.832ZM198.684 160V151.36H200.172V153.456L199.964 153.184C200.071 152.907 200.209 152.653 200.38 152.424C200.551 152.189 200.748 151.997 200.972 151.848C201.191 151.688 201.433 151.565 201.7 151.48C201.972 151.389 202.249 151.336 202.532 151.32C202.815 151.299 203.087 151.312 203.348 151.36V152.928C203.065 152.853 202.751 152.832 202.404 152.864C202.063 152.896 201.748 153.005 201.46 153.192C201.188 153.368 200.972 153.581 200.812 153.832C200.657 154.083 200.545 154.363 200.476 154.672C200.407 154.976 200.372 155.299 200.372 155.64V160H198.684Z" fill="white"/>
<path d="M158.069 160.988L158.081 158.756L165.605 152.012C166.213 151.476 166.625 150.964 166.841 150.476C167.065 149.988 167.177 149.5 167.177 149.012C167.177 148.396 167.041 147.844 166.769 147.356C166.497 146.86 166.121 146.468 165.641 146.18C165.161 145.892 164.609 145.748 163.985 145.748C163.345 145.748 162.773 145.9 162.269 146.204C161.773 146.5 161.385 146.896 161.105 147.392C160.825 147.888 160.689 148.424 160.697 149H158.129C158.129 147.88 158.381 146.9 158.885 146.06C159.397 145.212 160.097 144.552 160.985 144.08C161.873 143.6 162.889 143.36 164.033 143.36C165.121 143.36 166.097 143.608 166.961 144.104C167.825 144.592 168.505 145.264 169.001 146.12C169.505 146.976 169.757 147.952 169.757 149.048C169.757 149.84 169.653 150.512 169.445 151.064C169.237 151.616 168.925 152.128 168.509 152.6C168.093 153.072 167.573 153.584 166.949 154.136L161.141 159.32L160.865 158.6H169.757V160.988H158.069ZM178.766 161V157.988H170.966V155.612L176.582 143.72H179.45L173.834 155.612H178.766V150.932H181.31V155.612H183.026V157.988H181.31V161H178.766Z" fill="white"/>
<defs>
<filter id="filter0_d_482_1626" x="0" y="0" width="541.635" height="362" filterUnits="userSpaceOnUse" color-interpolation-filters="sRGB">
<feFlood flood-opacity="0" result="BackgroundImageFix"/>
<feColorMatrix in="SourceAlpha" type="matrix" values="0 0 0 0 0 0 0 0 0 0 0 0 0 0 0 0 0 0 127 0" result="hardAlpha"/>
<feOffset dy="28"/>
<feGaussianBlur stdDeviation="59"/>
<feComposite in2="hardAlpha" operator="out"/>
<feColorMatrix type="matrix" values="0 0 0 0 0.427425 0 0 0 0 0.42375 0 0 0 0 0.45 0 0 0 0.12 0"/>
<feBlend mode="normal" in2="BackgroundImageFix" result="effect1_dropShadow_482_1626"/>
<feBlend mode="normal" in="SourceGraphic" in2="effect1_dropShadow_482_1626" result="shape"/>
</filter>
<linearGradient id="paint0_linear_482_1626" x1="246.933" y1="-8.99999" x2="352.852" y2="325.707" gradientUnits="userSpaceOnUse">
<stop stop-color="white"/>
<stop offset="1" stop-color="white"/>
</linearGradient>
</defs>
</svg>
